<svg width="120" height="14" viewBox="0 0 120 14" fill="none" xmlns="http://www.w3.org/2000/svg">
<g id="logo">
<g id="XMLID_234_">
<path id="XMLID_243_" d="M9.42307 1.52885V8.16346C9.42307 10.375 8.46154 11.2885 6.15384 11.2885C3.84615 11.2885 2.88461 10.375 2.88461 8.16346V1.24039H0.673075C0.528844 1.24039 0.384613 1.38462 0.384613 1.52885V8.25962C0.384613 11.9615 2.74038 13.2596 6.15384 13.2596C9.56731 13.2596 11.9231 11.9615 11.9231 8.25962V1.24039H9.71154C9.56731 1.24039 9.42307 1.33654 9.42307 1.52885Z" fill="black"/>
<path id="XMLID_238_" fill-rule="evenodd" clip-rule="evenodd" d="M26.1057 6.81732C27.0673 6.28845 27.4519 5.375 27.4519 4.22116C27.4519 1.625 25.3365 1.24039 23.125 1.24039H18.0769C17.2596 1.24039 16.9231 1.48077 16.9231 2.05771V12.3462C16.9231 12.8269 17.1635 13.0673 17.7885 13.0673H23.9904C26.3461 13.0673 27.9807 12.1538 27.9807 9.79807C28.0288 8.35577 27.4519 7.15384 26.1057 6.81732ZM19.4231 3.11539H23.3173C24.6154 3.11539 25 3.59616 25 4.60577C25 5.61539 24.6154 6.09616 23.3173 6.09616H19.4231V3.11539ZM19.4231 11.1442H23.7981C25.1923 11.1442 25.5769 10.6635 25.5769 9.55768C25.5769 8.4519 25.1923 7.92307 23.7981 7.92307H20.9135C19.8077 7.92307 19.4231 8.25961 19.4231 8.98074V11.1442Z" fill="black"/>
<path id="XMLID_242_" d="M42.2143 3.16346C42.4066 3.16346 42.5028 3.11539 42.5508 2.97116L43.1758 1.38462C43.2239 1.28846 43.1758 1.24039 43.0797 1.24039H34.1374C33.3201 1.24039 32.9835 1.48077 32.9835 2.05769V12.3462C32.9835 12.8269 33.2239 13.0673 33.8489 13.0673H42.1662C42.3585 13.0673 42.4547 13.0192 42.5028 12.875L43.1278 11.2885C43.1758 11.1923 43.1278 11.1442 43.0316 11.1442H35.4354V9.02885C35.4354 8.30769 35.8201 7.97116 36.9258 7.97116H40.2431C40.4354 7.97116 40.5316 7.92308 40.5797 7.77885L41.2047 6.24039C41.2528 6.14423 41.2047 6.09616 41.1085 6.09616H35.4835V3.11539H42.2143V3.16346Z" fill="black"/>
<path id="XMLID_235_" fill-rule="evenodd" clip-rule="evenodd" d="M56.7043 8.30771L59.3485 12.875C59.3966 12.9231 59.3966 13.0673 59.3005 13.0673H57.0409C56.8485 13.0673 56.8005 13.0192 56.7043 12.875L54.3005 8.54807H52.137C51.0312 8.54807 50.6466 8.88461 50.6466 9.60577V13.0673H48.4832C48.3389 13.0673 48.1947 12.9231 48.1947 12.7788V2.05771C48.1947 1.48077 48.5312 1.24039 49.3485 1.24039H54.3966C57.3293 1.24039 59.1082 2.00961 59.1082 4.89423C59.1082 7.10577 58.0024 7.97116 56.7043 8.30771ZM50.5985 6.72116H54.7332C56.2716 6.72116 56.6082 6.14423 56.6082 4.89423C56.6082 3.69232 56.2716 3.11539 54.7332 3.11539H50.5985V6.72116Z" fill="black"/>
</g>
<g id="XMLID_224_">
<path id="XMLID_232_" d="M76.4423 12.0096L76.3942 13.0673H67.6442V1.24039H76.0577L76.1058 2.34616H68.8461V6.43269H75.0961V7.39423H68.8461V12.0096H76.4423Z" fill="#57AD56" stroke="#57AD56" stroke-width="0.25"/>
<g id="XMLID_229_">
<path fill-rule="evenodd" clip-rule="evenodd" d="M83.7019 9.99039H90.6731L92.0192 13.0673H93.3654L87.9327 1.24039H86.5385L81.0577 13.0673H82.3557L83.7019 9.99039ZM84.1346 8.98077L86.6827 3.25964L87.1635 2.05771H87.2115L87.6923 3.25964L90.1923 8.98077H84.1346Z" fill="#57AD56"/>
<path d="M90.6731 9.99039L90.7876 9.94028L90.7548 9.86539H90.6731V9.99039ZM83.7019 9.99039V9.86539H83.6202L83.5874 9.94028L83.7019 9.99039ZM92.0192 13.0673L91.9047 13.1174L91.9375 13.1923H92.0192V13.0673ZM93.3654 13.0673V13.1923H93.5603L93.4789 13.0151L93.3654 13.0673ZM87.9327 1.24039L88.0463 1.18821L88.0128 1.11539H87.9327V1.24039ZM86.5385 1.24039V1.11539H86.4586L86.425 1.18783L86.5385 1.24039ZM81.0577 13.0673L80.9443 13.0148L80.862 13.1923H81.0577V13.0673ZM82.3557 13.0673V13.1923H82.4375L82.4703 13.1174L82.3557 13.0673ZM86.6827 3.25964L86.7969 3.31054L86.7987 3.30607L86.6827 3.25964ZM84.1346 8.98077L84.0204 8.92992L83.9421 9.10577H84.1346V8.98077ZM87.1635 2.05771V1.93271H87.0788L87.0474 2.01128L87.1635 2.05771ZM87.2115 2.05771L87.3276 2.01129L87.2962 1.93271H87.2115V2.05771ZM87.6923 3.25964L87.5762 3.30609L87.5777 3.3097L87.6923 3.25964ZM90.1923 8.98077V9.10577H90.3833L90.3068 8.93072L90.1923 8.98077ZM90.6731 9.86539H83.7019V10.1154H90.6731V9.86539ZM92.1337 13.0172L90.7876 9.94028L90.5585 10.0405L91.9047 13.1174L92.1337 13.0172ZM93.3654 12.9423H92.0192V13.1923H93.3654V12.9423ZM87.8191 1.29256L93.2518 13.1195L93.4789 13.0151L88.0463 1.18821L87.8191 1.29256ZM86.5385 1.36539H87.9327V1.11539H86.5385V1.36539ZM81.1711 13.1199L86.6519 1.29294L86.425 1.18783L80.9443 13.0148L81.1711 13.1199ZM82.3557 12.9423H81.0577V13.1923H82.3557V12.9423ZM83.5874 9.94028L82.2412 13.0172L82.4703 13.1174L83.8164 10.0405L83.5874 9.94028ZM86.5685 3.20879L84.0204 8.92992L84.2488 9.03163L86.7969 3.3105L86.5685 3.20879ZM87.0474 2.01128L86.5666 3.21322L86.7987 3.30607L87.2795 2.10413L87.0474 2.01128ZM87.2115 1.93271H87.1635V2.18271H87.2115V1.93271ZM87.8084 3.21322L87.3276 2.01129L87.0955 2.10413L87.5762 3.30606L87.8084 3.21322ZM90.3068 8.93072L87.8068 3.20959L87.5777 3.3097L90.0777 9.03083L90.3068 8.93072ZM84.1346 9.10577H90.1923V8.85577H84.1346V9.10577Z" fill="#57AD56"/>
</g>
<path id="XMLID_227_" d="M102.019 2.34616V13.0673H100.817V2.34616H96.3942L96.4423 1.24039H106.49V2.34616H102.019Z" fill="#57AD56" stroke="#57AD56" stroke-width="0.25"/>
<path id="XMLID_225_" d="M115.048 13.3077C113.413 13.3077 112.115 12.9231 111.058 12.2981L111.25 11.2404C112.356 11.8654 113.606 12.25 115.096 12.25C117.308 12.25 118.462 11.2404 118.462 9.79808C118.462 6.67308 111.25 8.30769 111.25 4.26923C111.25 2.53846 112.548 1 115.577 1C116.971 1 118.221 1.24038 119.231 1.72115L119.038 2.73077C117.933 2.29808 116.875 2.05769 115.625 2.05769C113.269 2.05769 112.404 3.11538 112.404 4.17308C112.404 7.15385 119.615 5.47115 119.615 9.70192C119.567 11.8173 118.029 13.3077 115.048 13.3077Z" fill="#57AD56" stroke="#57AD56" stroke-width="0.25"/>
</g>
</g>
</svg>
