<svg width="16" height="16" viewBox="0 0 16 16" fill="none" xmlns="http://www.w3.org/2000/svg">
<g id="world">
<path id="Shape" fill-rule="evenodd" clip-rule="evenodd" d="M8.338 0.165901C8.31667 0.163493 8.29536 0.160799 8.27404 0.158103C8.20836 0.149798 8.14256 0.141479 8.07581 0.141479C8.06196 0.141479 8.04828 0.143335 8.03463 0.145186C8.02281 0.146788 8.01102 0.148387 7.99917 0.148778C7.97779 0.148387 7.95652 0.146784 7.93524 0.14518C7.9107 0.143331 7.88614 0.141479 7.86134 0.141479C3.5274 0.141479 0.00134277 3.66765 0.00134277 8.00113C0.00134277 12.3352 3.5274 15.8608 7.86134 15.8608C7.88627 15.8608 7.91094 15.859 7.93555 15.8572C7.95668 15.8557 7.97776 15.8541 7.99889 15.8538C8.01087 15.8542 8.02273 15.8557 8.03458 15.8572C8.04828 15.859 8.06196 15.8608 8.07581 15.8608C8.14606 15.8608 8.21526 15.8519 8.28437 15.8431C8.30225 15.8408 8.32012 15.8385 8.338 15.8364C12.4499 15.5882 15.7213 12.1743 15.7213 8.00113C15.7213 3.82794 12.4499 0.414322 8.338 0.165901ZM5.50841 1.54382C4.71231 2.46284 4.06554 3.78242 3.71044 5.34088C2.60611 5.22102 1.93969 5.08151 1.67105 5.01695C2.45146 3.40552 3.82734 2.16024 5.50841 1.54382ZM1.2992 5.93237C1.09287 6.58529 0.980586 7.2803 0.980586 8.00114C0.981748 8.84798 1.14033 9.68722 1.44826 10.4761C1.76294 10.4 2.46416 10.2543 3.60246 10.1308C3.48175 9.45462 3.41073 8.74304 3.41073 8.00114C3.41134 7.43446 3.45139 6.86851 3.53059 6.30739C2.20366 6.16002 1.48671 5.9829 1.2992 5.93237ZM1.87601 11.3834C2.23196 11.3076 2.86974 11.1928 3.81238 11.0942C4.1832 12.4663 4.78646 13.6259 5.50902 14.459C3.97172 13.8966 2.68405 12.8066 1.87545 11.3834H1.87601ZM4.7081 11.0102C5.21647 12.9791 6.45667 14.4396 7.29881 14.7921V10.9072C6.45667 10.9173 5.43908 10.9561 4.7081 11.0102ZM7.29881 9.92874C6.45667 9.9394 5.31051 9.98263 4.52901 10.0433C4.42149 9.39484 4.39089 8.70881 4.39089 8.00116C4.39089 7.45098 4.40156 6.9154 4.46809 6.39807C5.26167 6.46095 6.45667 6.50614 7.29881 6.51737V9.92846V9.92874ZM4.60292 5.42799C5.35579 5.48554 6.45675 5.5282 7.2989 5.53859V5.53831V1.21045C6.45675 1.58884 5.07311 3.23992 4.60292 5.42799ZM14.0264 4.96303C13.8729 5.01019 13.2508 5.18366 12.0204 5.32935C11.7428 3.85286 11.2417 2.59475 10.5882 1.6864C12.0864 2.33566 13.3047 3.50451 14.0264 4.96275V4.96303ZM11.1128 5.42654C10.6516 3.21124 9.26378 1.54527 8.42164 1.1958V5.53882C9.26378 5.52843 10.372 5.48549 11.1128 5.42654ZM8.42164 6.51728C9.26378 6.50634 10.4442 6.46002 11.2279 6.3949C11.2925 6.91307 11.3088 7.44949 11.3088 8.00107C11.3088 8.70956 11.2835 9.39672 11.1791 10.046C10.4074 9.98367 9.26378 9.93876 8.42164 9.92865V6.51728ZM8.42164 10.9072V14.8067V14.807C9.26378 14.4808 10.5107 13.0077 11.0104 11.0125C10.289 10.9569 9.26378 10.9173 8.42164 10.9072ZM10.5882 14.3163C11.1772 13.4978 11.6463 12.3992 11.9357 11.1088C12.9036 11.2202 13.5133 11.3499 13.8207 11.4274C13.0805 12.7117 11.9474 13.7245 10.5882 14.3163ZM12.1686 6.29671C12.3163 7.57569 12.2965 8.86848 12.1097 10.1423L12.11 10.142C13.3047 10.2824 13.9843 10.4514 14.2546 10.5303C14.5662 9.74654 14.7431 8.89461 14.7431 8.00113C14.7427 7.11798 14.5711 6.24327 14.2378 5.42542L14.3958 5.87173C14.3515 5.88745 13.6817 6.1151 12.1686 6.29671Z" fill="white"/>
</g>
</svg>
